<svg xmlns="http://www.w3.org/2000/svg" xmlns:xlink="http://www.w3.org/1999/xlink" width="1410" zoomAndPan="magnify" viewBox="0 0 1057.5 1687.499993" height="2250" preserveAspectRatio="xMidYMid meet" version="1.2"><g id="b42919cb8f"><path style=" stroke:none;fill-rule:nonzero;fill:#9153af;fill-opacity:1;" d="M 156.832031 467.460938 C 153.625 480.378906 151.71875 493.816406 151.71875 507.738281 L 151.71875 752.839844 C 151.71875 844.8125 226.257812 919.351562 318.21875 919.351562 L 418.574219 919.351562 C 418.527344 919.578125 418.453125 919.839844 418.402344 920.070312 L 459.855469 920.070312 C 459.90625 919.828125 459.953125 919.589844 459.980469 919.351562 L 548.90625 919.351562 C 548.957031 919.589844 549.003906 919.828125 549.03125 920.070312 L 590.191406 920.070312 C 590.117188 919.839844 590.066406 919.578125 590.019531 919.351562 L 688.195312 919.351562 C 780.132812 919.351562 854.683594 844.8125 854.683594 752.839844 L 854.683594 507.738281 C 854.683594 505.023438 854.410156 502.378906 854.285156 499.664062 L 854.484375 499.6875 C 854.484375 499.6875 976.105469 90.117188 829.460938 90.117188 C 734.25 90.117188 779.742188 307.46875 672.558594 307.394531 C 565.351562 307.347656 641.898438 90.117188 492.207031 90.117188 C 342.492188 90.117188 423.394531 314.199219 311.832031 314.199219 C 200.269531 314.199219 271.503906 56.027344 164.859375 94.128906 C 58.238281 132.207031 156.660156 467.460938 156.660156 467.460938 L 156.832031 467.460938 "/><path style=" stroke:none;fill-rule:nonzero;fill:#ffffff;fill-opacity:1;" d="M 212.652344 720.171875 C 212.652344 673.628906 250.386719 635.894531 296.929688 635.894531 C 343.472656 635.894531 381.183594 673.628906 381.183594 720.171875 C 381.183594 766.714844 343.472656 804.433594 296.929688 804.433594 C 250.386719 804.433594 212.652344 766.714844 212.652344 720.171875 "/><path style=" stroke:none;fill-rule:nonzero;fill:#54c8f4;fill-opacity:1;" d="M 234.429688 720.171875 C 234.429688 685.644531 262.402344 657.648438 296.929688 657.648438 C 331.433594 657.648438 359.453125 685.644531 359.453125 720.171875 C 359.453125 754.675781 331.433594 782.675781 296.929688 782.675781 C 262.402344 782.675781 234.429688 754.675781 234.429688 720.171875 "/><path style=" stroke:none;fill-rule:nonzero;fill:#593014;fill-opacity:1;" d="M 246.199219 720.171875 C 246.199219 692.152344 268.910156 669.445312 296.929688 669.445312 C 324.925781 669.445312 347.65625 692.152344 347.65625 720.171875 C 347.65625 748.191406 324.925781 770.902344 296.929688 770.902344 C 268.910156 770.902344 246.199219 748.191406 246.199219 720.171875 "/><path style=" stroke:none;fill-rule:nonzero;fill:#ffffff;fill-opacity:1;" d="M 341.171875 683.710938 C 341.171875 675.832031 347.535156 669.445312 355.4375 669.445312 C 363.292969 669.445312 369.679688 675.832031 369.679688 683.710938 C 369.679688 691.589844 363.292969 697.953125 355.4375 697.953125 C 347.535156 697.953125 341.171875 691.589844 341.171875 683.710938 "/><path style=" stroke:none;fill-rule:nonzero;fill:#ffffff;fill-opacity:1;" d="M 253.125 762.117188 C 253.125 754.234375 259.511719 747.875 267.390625 747.875 C 275.246094 747.875 281.632812 754.234375 281.632812 762.117188 C 281.632812 769.972656 275.246094 776.382812 267.390625 776.382812 C 259.511719 776.382812 253.125 769.972656 253.125 762.117188 "/><path style=" stroke:none;fill-rule:nonzero;fill:#ffffff;fill-opacity:1;" d="M 409.714844 720.171875 C 409.714844 673.628906 447.449219 635.894531 493.96875 635.894531 C 540.511719 635.894531 578.246094 673.628906 578.246094 720.171875 C 578.246094 766.714844 540.511719 804.433594 493.96875 804.433594 C 447.449219 804.433594 409.714844 766.714844 409.714844 720.171875 "/><path style=" stroke:none;fill-rule:nonzero;fill:#54c8f4;fill-opacity:1;" d="M 431.46875 720.171875 C 431.46875 685.644531 459.464844 657.648438 493.96875 657.648438 C 528.5 657.648438 556.492188 685.644531 556.492188 720.171875 C 556.492188 754.675781 528.5 782.675781 493.96875 782.675781 C 459.464844 782.675781 431.46875 754.675781 431.46875 720.171875 "/><path style=" stroke:none;fill-rule:nonzero;fill:#593014;fill-opacity:1;" d="M 443.242188 720.171875 C 443.242188 692.152344 465.949219 669.445312 493.96875 669.445312 C 521.988281 669.445312 544.699219 692.152344 544.699219 720.171875 C 544.699219 748.191406 521.988281 770.902344 493.96875 770.902344 C 465.949219 770.902344 443.242188 748.191406 443.242188 720.171875 "/><path style=" stroke:none;fill-rule:nonzero;fill:#ffffff;fill-opacity:1;" d="M 538.214844 683.710938 C 538.214844 675.832031 544.601562 669.445312 552.480469 669.445312 C 560.359375 669.445312 566.746094 675.832031 566.746094 683.710938 C 566.746094 691.589844 560.359375 697.953125 552.480469 697.953125 C 544.601562 697.953125 538.214844 691.589844 538.214844 683.710938 "/><path style=" stroke:none;fill-rule:nonzero;fill:#ffffff;fill-opacity:1;" d="M 450.191406 762.117188 C 450.191406 754.234375 456.554688 747.875 464.457031 747.875 C 472.3125 747.875 478.699219 754.234375 478.699219 762.117188 C 478.699219 769.972656 472.3125 776.382812 464.457031 776.382812 C 456.554688 776.382812 450.191406 769.972656 450.191406 762.117188 "/><path style=" stroke:none;fill-rule:nonzero;fill:#ffffff;fill-opacity:1;" d="M 635.851562 720.171875 C 635.851562 673.628906 673.585938 635.894531 720.128906 635.894531 C 766.675781 635.894531 804.414062 673.628906 804.414062 720.171875 C 804.414062 766.714844 766.675781 804.433594 720.128906 804.433594 C 673.585938 804.433594 635.851562 766.714844 635.851562 720.171875 "/><path style=" stroke:none;fill-rule:nonzero;fill:#54c8f4;fill-opacity:1;" d="M 657.605469 720.171875 C 657.605469 685.644531 685.625 657.648438 720.132812 657.648438 C 754.660156 657.648438 782.65625 685.644531 782.65625 720.171875 C 782.65625 754.675781 754.660156 782.675781 720.132812 782.675781 C 685.625 782.675781 657.605469 754.675781 657.605469 720.171875 "/><path style=" stroke:none;fill-rule:nonzero;fill:#593014;fill-opacity:1;" d="M 669.402344 720.171875 C 669.402344 692.152344 692.136719 669.445312 720.128906 669.445312 C 748.148438 669.445312 770.882812 692.152344 770.882812 720.171875 C 770.882812 748.191406 748.148438 770.902344 720.128906 770.902344 C 692.136719 770.902344 669.402344 748.191406 669.402344 720.171875 "/><path style=" stroke:none;fill-rule:nonzero;fill:#ffffff;fill-opacity:1;" d="M 764.375 683.710938 C 764.375 675.832031 770.761719 669.445312 778.640625 669.445312 C 786.53125 669.445312 792.894531 675.832031 792.894531 683.710938 C 792.894531 691.589844 786.53125 697.953125 778.640625 697.953125 C 770.761719 697.953125 764.375 691.589844 764.375 683.710938 "/><path style=" stroke:none;fill-rule:nonzero;fill:#ffffff;fill-opacity:1;" d="M 676.351562 762.117188 C 676.351562 754.234375 682.714844 747.875 690.59375 747.875 C 698.472656 747.875 704.859375 754.234375 704.859375 762.117188 C 704.859375 769.972656 698.472656 776.382812 690.59375 776.382812 C 682.714844 776.382812 676.351562 769.972656 676.351562 762.117188 "/><path style=" stroke:none;fill-rule:nonzero;fill:#271325;fill-opacity:1;" d="M 495.460938 460.632812 L 497.101562 460.632812 C 587.960938 461 646.128906 490.097656 679.019531 514.566406 C 715.066406 541.363281 729.085938 568.011719 729.648438 569.136719 L 721.746094 573.199219 C 721.625 572.980469 707.820312 546.992188 673.246094 521.371094 C 641.433594 497.828125 584.878906 469.710938 496.269531 469.539062 C 326.246094 469.859375 271.355469 572.171875 270.816406 573.199219 L 262.9375 569.136719 C 263.5 568.011719 277.523438 541.363281 313.570312 514.566406 C 346.433594 490.097656 404.601562 461 495.460938 460.632812 "/><path style=" stroke:none;fill-rule:nonzero;fill:#271325;fill-opacity:1;" d="M 323.1875 581.640625 C 314.71875 585.117188 305.519531 586.511719 296.242188 586.511719 C 286.992188 586.4375 277.425781 584.628906 268.789062 580.101562 C 260.125 575.648438 252.855469 568.011719 249.1875 559.078125 C 245.417969 550.171875 244.78125 540.554688 246.394531 531.625 C 248.5 540.480469 251.019531 548.851562 255.402344 555.898438 C 259.683594 562.996094 265.726562 568.453125 272.921875 572.21875 C 280.140625 576.011719 288.316406 578.242188 296.832031 579.5625 C 305.324219 580.933594 314.109375 581.445312 323.1875 581.640625 "/><path style=" stroke:none;fill-rule:nonzero;fill:#271325;fill-opacity:1;" d="M 669.109375 581.640625 C 678.1875 581.445312 686.972656 580.933594 695.488281 579.5625 C 703.957031 578.242188 712.179688 576.011719 719.371094 572.21875 C 726.566406 568.453125 732.609375 562.996094 736.894531 555.898438 C 741.273438 548.851562 743.820312 540.480469 745.921875 531.625 C 747.515625 540.554688 746.878906 550.171875 743.15625 559.078125 C 739.464844 568.011719 732.171875 575.648438 723.507812 580.074219 C 714.894531 584.628906 705.300781 586.4375 696.050781 586.511719 C 686.777344 586.511719 677.601562 585.117188 669.109375 581.640625 "/><path style=" stroke:none;fill-rule:nonzero;fill:#271325;fill-opacity:1;" d="M 561.949219 406.871094 C 553.089844 402.585938 544.207031 398.964844 535.226562 396.226562 C 526.222656 393.460938 517.09375 391.648438 507.941406 391.257812 C 498.816406 390.867188 489.6875 391.941406 480.851562 394.683594 C 471.996094 397.324219 463.550781 401.707031 455.109375 406.871094 C 461.03125 398.964844 469.058594 392.457031 478.332031 388.148438 C 487.605469 383.816406 498.082031 381.886719 508.335938 382.375 C 518.585938 382.816406 528.621094 385.507812 537.722656 389.691406 C 546.777344 394 555.21875 399.554688 561.949219 406.871094 "/><path style=" stroke:none;fill-rule:nonzero;fill:#271325;fill-opacity:1;" d="M 244.832031 571.121094 C 244.414062 577.507812 244 583.699219 244.367188 589.644531 C 244.730469 595.492188 246.199219 601.390625 249.75 604.058594 C 251.488281 605.378906 254.03125 606.089844 256.820312 606.40625 C 259.609375 606.699219 262.621094 606.652344 265.628906 606.480469 C 271.75 606.210938 278.0625 605.402344 284.523438 605.671875 C 278.574219 608.070312 272.679688 610.222656 266.339844 611.617188 C 263.132812 612.28125 259.878906 612.769531 256.378906 612.671875 C 252.953125 612.546875 249.113281 611.839844 245.761719 609.390625 C 242.40625 606.894531 240.621094 603.273438 239.742188 599.824219 C 238.859375 596.324219 238.761719 592.875 239.078125 589.570312 C 239.742188 582.964844 241.671875 576.722656 244.832031 571.121094 "/><path style=" stroke:none;fill-rule:nonzero;fill:#271325;fill-opacity:1;" d="M 772.230469 571.121094 C 775.386719 576.722656 777.367188 582.964844 778.003906 589.570312 C 778.296875 592.875 778.226562 596.324219 777.367188 599.824219 C 776.464844 603.273438 774.628906 606.894531 771.300781 609.390625 C 767.945312 611.839844 764.105469 612.546875 760.679688 612.671875 C 757.203125 612.769531 753.925781 612.28125 750.742188 611.617188 C 744.40625 610.222656 738.484375 608.070312 732.5625 605.671875 C 738.996094 605.402344 745.3125 606.210938 751.40625 606.480469 C 754.464844 606.652344 757.449219 606.699219 760.261719 606.40625 C 763.054688 606.089844 765.574219 605.378906 767.3125 604.058594 C 770.882812 601.390625 772.328125 595.492188 772.695312 589.644531 C 773.085938 583.699219 772.671875 577.507812 772.230469 571.121094 "/></g></svg>